<svg id="visual" viewBox="0 0 900 600" width="900" height="600" xmlns="http://www.w3.org/2000/svg" xmlns:xlink="http://www.w3.org/1999/xlink" version="1.1"><g stroke-width="1" stroke-linejoin="bevel"><path d="M450 310L361.5 381L457 423Z" fill="#1d4e6b" stroke="#1d4e6b"></path><path d="M361.5 381L425 495L457 423Z" fill="#1d4e6b" stroke="#1d4e6b"></path><path d="M450 310L301.5 302L361.5 381Z" fill="#297ea6" stroke="#297ea6"></path><path d="M361.5 381L307.5 479L425 495Z" fill="#205a7a" stroke="#205a7a"></path><path d="M595.5 425L577.5 339L457 423Z" fill="#246688" stroke="#246688"></path><path d="M457 423L577.5 339L450 310Z" fill="#205a7a" stroke="#205a7a"></path><path d="M252 393L307.5 479L361.5 381Z" fill="#00101c" stroke="#00101c"></path><path d="M301.5 302L252 393L361.5 381Z" fill="#205a7a" stroke="#205a7a"></path><path d="M561.5 509L595.5 425L457 423Z" fill="#297ea6" stroke="#297ea6"></path><path d="M229 226L254 292L301.5 302Z" fill="#0c2435" stroke="#0c2435"></path><path d="M301.5 302L254 292L252 393Z" fill="#277297" stroke="#277297"></path><path d="M576.5 162L423 176L450 310Z" fill="#00101c" stroke="#00101c"></path><path d="M450 310L373.5 182L301.5 302Z" fill="#081a28" stroke="#081a28"></path><path d="M423 176L373.5 182L450 310Z" fill="#205a7a" stroke="#205a7a"></path><path d="M425 495L561.5 509L457 423Z" fill="#081a28" stroke="#081a28"></path><path d="M678 397L635 277L577.5 339Z" fill="#112e42" stroke="#112e42"></path><path d="M577.5 339L576.5 162L450 310Z" fill="#15384f" stroke="#15384f"></path><path d="M370.5 600L435 600L425 495Z" fill="#277297" stroke="#277297"></path><path d="M425 495L541.5 600L561.5 509Z" fill="#112e42" stroke="#112e42"></path><path d="M219 600L370.5 600L307.5 479Z" fill="#112e42" stroke="#112e42"></path><path d="M307.5 479L370.5 600L425 495Z" fill="#297ea6" stroke="#297ea6"></path><path d="M373.5 182L229 226L301.5 302Z" fill="#0c2435" stroke="#0c2435"></path><path d="M254 292L105.5 277L252 393Z" fill="#0c2435" stroke="#0c2435"></path><path d="M681 500L678 397L595.5 425Z" fill="#277297" stroke="#277297"></path><path d="M595.5 425L678 397L577.5 339Z" fill="#19435d" stroke="#19435d"></path><path d="M635 277L576.5 162L577.5 339Z" fill="#15384f" stroke="#15384f"></path><path d="M435 600L541.5 600L425 495Z" fill="#246688" stroke="#246688"></path><path d="M561.5 509L681 500L595.5 425Z" fill="#0c2435" stroke="#0c2435"></path><path d="M75.5 390L207 520L252 393Z" fill="#19435d" stroke="#19435d"></path><path d="M252 393L207 520L307.5 479Z" fill="#246688" stroke="#246688"></path><path d="M767.5 304L656 220L635 277Z" fill="#00101c" stroke="#00101c"></path><path d="M635 277L656 220L576.5 162Z" fill="#0c2435" stroke="#0c2435"></path><path d="M541.5 0L550.5 123L638 0Z" fill="#1d4e6b" stroke="#1d4e6b"></path><path d="M576.5 162L550.5 123L423 176Z" fill="#00101c" stroke="#00101c"></path><path d="M423 176L362.5 88L373.5 182Z" fill="#246688" stroke="#246688"></path><path d="M373.5 182L362.5 88L229 226Z" fill="#246688" stroke="#246688"></path><path d="M469 67L362.5 88L423 176Z" fill="#205a7a" stroke="#205a7a"></path><path d="M657 600L681 500L561.5 509Z" fill="#081a28" stroke="#081a28"></path><path d="M550.5 123L469 67L423 176Z" fill="#112e42" stroke="#112e42"></path><path d="M207 520L219 600L307.5 479Z" fill="#246688" stroke="#246688"></path><path d="M186 97L139.5 208L229 226Z" fill="#15384f" stroke="#15384f"></path><path d="M229 226L105.5 277L254 292Z" fill="#246688" stroke="#246688"></path><path d="M207 520L91.5 600L219 600Z" fill="#19435d" stroke="#19435d"></path><path d="M541.5 600L657 600L561.5 509Z" fill="#19435d" stroke="#19435d"></path><path d="M139.5 208L105.5 277L229 226Z" fill="#277297" stroke="#277297"></path><path d="M105.5 277L75.5 390L252 393Z" fill="#0c2435" stroke="#0c2435"></path><path d="M678 397L767.5 304L635 277Z" fill="#15384f" stroke="#15384f"></path><path d="M541.5 0L469 67L550.5 123Z" fill="#1d4e6b" stroke="#1d4e6b"></path><path d="M791.5 363L767.5 304L678 397Z" fill="#15384f" stroke="#15384f"></path><path d="M763.5 505L678 397L681 500Z" fill="#1d4e6b" stroke="#1d4e6b"></path><path d="M317.5 0L186 97L362.5 88Z" fill="#205a7a" stroke="#205a7a"></path><path d="M362.5 88L186 97L229 226Z" fill="#246688" stroke="#246688"></path><path d="M0 227L0 271L105.5 277Z" fill="#205a7a" stroke="#205a7a"></path><path d="M768.5 600L763.5 505L681 500Z" fill="#112e42" stroke="#112e42"></path><path d="M763.5 505L791.5 363L678 397Z" fill="#0c2435" stroke="#0c2435"></path><path d="M541.5 0L468 0L469 67Z" fill="#1d4e6b" stroke="#1d4e6b"></path><path d="M469 67L468 0L362.5 88Z" fill="#081a28" stroke="#081a28"></path><path d="M550.5 123L576.5 162L710 72Z" fill="#1d4e6b" stroke="#1d4e6b"></path><path d="M75.5 390L73.5 490L207 520Z" fill="#00101c" stroke="#00101c"></path><path d="M468 0L317.5 0L362.5 88Z" fill="#15384f" stroke="#15384f"></path><path d="M710 72L576.5 162L656 220Z" fill="#0c2435" stroke="#0c2435"></path><path d="M900 177L754.5 167L767.5 304Z" fill="#0c2435" stroke="#0c2435"></path><path d="M767.5 304L754.5 167L656 220Z" fill="#15384f" stroke="#15384f"></path><path d="M186 97L100.5 139L139.5 208Z" fill="#19435d" stroke="#19435d"></path><path d="M0 271L0 429L75.5 390Z" fill="#19435d" stroke="#19435d"></path><path d="M82.5 0L100.5 139L186 97Z" fill="#246688" stroke="#246688"></path><path d="M73.5 490L91.5 600L207 520Z" fill="#246688" stroke="#246688"></path><path d="M754.5 167L710 72L656 220Z" fill="#15384f" stroke="#15384f"></path><path d="M657 600L768.5 600L681 500Z" fill="#205a7a" stroke="#205a7a"></path><path d="M763.5 505L900 408L791.5 363Z" fill="#246688" stroke="#246688"></path><path d="M710 72L638 0L550.5 123Z" fill="#246688" stroke="#246688"></path><path d="M75.5 390L0 429L73.5 490Z" fill="#1d4e6b" stroke="#1d4e6b"></path><path d="M73.5 490L0 600L91.5 600Z" fill="#205a7a" stroke="#205a7a"></path><path d="M0 271L75.5 390L105.5 277Z" fill="#00101c" stroke="#00101c"></path><path d="M317.5 0L199 0L186 97Z" fill="#15384f" stroke="#15384f"></path><path d="M0 227L139.5 208L100.5 139Z" fill="#19435d" stroke="#19435d"></path><path d="M0 227L105.5 277L139.5 208Z" fill="#297ea6" stroke="#297ea6"></path><path d="M0 429L0 502L73.5 490Z" fill="#19435d" stroke="#19435d"></path><path d="M0 63L0 227L100.5 139Z" fill="#00101c" stroke="#00101c"></path><path d="M900 481L900 408L763.5 505Z" fill="#15384f" stroke="#15384f"></path><path d="M791.5 363L900 314L767.5 304Z" fill="#15384f" stroke="#15384f"></path><path d="M754.5 167L825.5 64L710 72Z" fill="#081a28" stroke="#081a28"></path><path d="M900 408L900 314L791.5 363Z" fill="#297ea6" stroke="#297ea6"></path><path d="M0 502L0 600L73.5 490Z" fill="#1d4e6b" stroke="#1d4e6b"></path><path d="M900 600L900 481L763.5 505Z" fill="#205a7a" stroke="#205a7a"></path><path d="M199 0L82.5 0L186 97Z" fill="#297ea6" stroke="#297ea6"></path><path d="M900 138L825.5 64L754.5 167Z" fill="#297ea6" stroke="#297ea6"></path><path d="M710 72L776.5 0L638 0Z" fill="#297ea6" stroke="#297ea6"></path><path d="M825.5 64L776.5 0L710 72Z" fill="#19435d" stroke="#19435d"></path><path d="M900 314L900 177L767.5 304Z" fill="#081a28" stroke="#081a28"></path><path d="M82.5 0L0 63L100.5 139Z" fill="#277297" stroke="#277297"></path><path d="M900 177L900 138L754.5 167Z" fill="#0c2435" stroke="#0c2435"></path><path d="M825.5 64L900 0L776.5 0Z" fill="#19435d" stroke="#19435d"></path><path d="M768.5 600L900 600L763.5 505Z" fill="#19435d" stroke="#19435d"></path><path d="M82.5 0L0 0L0 63Z" fill="#15384f" stroke="#15384f"></path><path d="M900 138L900 0L825.5 64Z" fill="#297ea6" stroke="#297ea6"></path></g></svg>