<svg id="visual" viewBox="0 0 900 600" width="900" height="600" xmlns="http://www.w3.org/2000/svg" xmlns:xlink="http://www.w3.org/1999/xlink" version="1.1"><path d="M0 205L13.7 207C27.3 209 54.7 213 82 199C109.3 185 136.7 153 163.8 156C191 159 218 197 245.2 225C272.3 253 299.7 271 327 261C354.3 251 381.7 213 409 202C436.3 191 463.7 207 491 211C518.3 215 545.7 207 573 200C600.3 193 627.7 187 654.8 188C682 189 709 197 736.2 193C763.3 189 790.7 173 818 175C845.3 177 872.7 197 886.3 207L900 217L900 0L886.3 0C872.7 0 845.3 0 818 0C790.7 0 763.3 0 736.2 0C709 0 682 0 654.8 0C627.7 0 600.3 0 573 0C545.7 0 518.3 0 491 0C463.7 0 436.3 0 409 0C381.7 0 354.3 0 327 0C299.7 0 272.3 0 245.2 0C218 0 191 0 163.8 0C136.7 0 109.3 0 82 0C54.7 0 27.3 0 13.7 0L0 0Z" fill="#5389a7"></path><path d="M0 337L13.7 341C27.3 345 54.7 353 82 339C109.3 325 136.7 289 163.8 287C191 285 218 317 245.2 334C272.3 351 299.7 353 327 339C354.3 325 381.7 295 409 298C436.3 301 463.7 337 491 350C518.3 363 545.7 353 573 339C600.3 325 627.7 307 654.8 296C682 285 709 281 736.2 277C763.3 273 790.7 269 818 284C845.3 299 872.7 333 886.3 350L900 367L900 215L886.3 205C872.7 195 845.3 175 818 173C790.7 171 763.3 187 736.2 191C709 195 682 187 654.8 186C627.7 185 600.3 191 573 198C545.7 205 518.3 213 491 209C463.7 205 436.3 189 409 200C381.7 211 354.3 249 327 259C299.7 269 272.3 251 245.2 223C218 195 191 157 163.8 154C136.7 151 109.3 183 82 197C54.7 211 27.3 207 13.7 205L0 203Z" fill="#3d7797"></path><path d="M0 457L13.7 459C27.3 461 54.7 465 82 447C109.3 429 136.7 389 163.8 378C191 367 218 385 245.2 394C272.3 403 299.7 403 327 391C354.3 379 381.7 355 409 359C436.3 363 463.7 395 491 415C518.3 435 545.7 443 573 428C600.3 413 627.7 375 654.8 356C682 337 709 337 736.2 337C763.3 337 790.7 337 818 351C845.3 365 872.7 393 886.3 407L900 421L900 365L886.3 348C872.7 331 845.3 297 818 282C790.7 267 763.3 271 736.2 275C709 279 682 283 654.8 294C627.7 305 600.3 323 573 337C545.7 351 518.3 361 491 348C463.7 335 436.3 299 409 296C381.7 293 354.3 323 327 337C299.7 351 272.3 349 245.2 332C218 315 191 283 163.8 285C136.7 287 109.3 323 82 337C54.7 351 27.3 343 13.7 339L0 335Z" fill="#246688"></path><path d="M0 499L13.7 504C27.3 509 54.7 519 82 509C109.3 499 136.7 469 163.8 460C191 451 218 463 245.2 471C272.3 479 299.7 483 327 474C354.3 465 381.7 443 409 442C436.3 441 463.7 461 491 472C518.3 483 545.7 485 573 472C600.3 459 627.7 431 654.8 420C682 409 709 415 736.2 415C763.3 415 790.7 409 818 424C845.3 439 872.7 475 886.3 493L900 511L900 419L886.3 405C872.7 391 845.3 363 818 349C790.7 335 763.3 335 736.2 335C709 335 682 335 654.8 354C627.7 373 600.3 411 573 426C545.7 441 518.3 433 491 413C463.7 393 436.3 361 409 357C381.7 353 354.3 377 327 389C299.7 401 272.3 401 245.2 392C218 383 191 365 163.8 376C136.7 387 109.3 427 82 445C54.7 463 27.3 459 13.7 457L0 455Z" fill="#1f5876"></path><path d="M0 601L13.7 601C27.3 601 54.7 601 82 601C109.3 601 136.7 601 163.8 601C191 601 218 601 245.2 601C272.3 601 299.7 601 327 601C354.3 601 381.7 601 409 601C436.3 601 463.7 601 491 601C518.3 601 545.7 601 573 601C600.3 601 627.7 601 654.8 601C682 601 709 601 736.2 601C763.3 601 790.7 601 818 601C845.3 601 872.7 601 886.3 601L900 601L900 509L886.3 491C872.7 473 845.3 437 818 422C790.7 407 763.3 413 736.2 413C709 413 682 407 654.8 418C627.7 429 600.3 457 573 470C545.7 483 518.3 481 491 470C463.7 459 436.3 439 409 440C381.7 441 354.3 463 327 472C299.7 481 272.3 477 245.2 469C218 461 191 449 163.8 458C136.7 467 109.3 497 82 507C54.7 517 27.3 507 13.7 502L0 497Z" fill="#1b4b64"></path></svg>